<svg width="273" height="71" viewBox="0 0 273 71" fill="none" xmlns="http://www.w3.org/2000/svg">
<g style="mix-blend-mode:lighten">
<rect x="68" width="205" height="71" fill="#515070"/>
<path d="M115.743 49.6494V43.392H117.644C118.195 43.392 118.689 43.5102 119.126 43.7465C119.563 43.9828 119.903 44.3176 120.147 44.7509C120.394 45.1806 120.521 45.6658 120.528 46.2065V46.7919C120.528 47.3469 120.408 47.8411 120.168 48.2744C119.932 48.704 119.594 49.0388 119.153 49.2787C118.716 49.5187 118.217 49.6422 117.655 49.6494H115.743ZM116.382 43.9453V49.1069H117.606C118.301 49.1069 118.854 48.8974 119.266 48.4785C119.681 48.0595 119.889 47.4866 119.889 46.7597V46.2495C119.889 45.5512 119.687 44.9926 119.282 44.5737C118.877 44.1547 118.326 43.9453 117.628 43.9453H116.382ZM127.703 46.6791H124.604V49.1069H128.176V49.6494H123.965V43.392H128.155V43.9453H124.604V46.1313H127.703V46.6791ZM135.152 48.0971C135.152 47.7784 135.034 47.5224 134.798 47.329C134.562 47.1357 134.121 46.9584 133.477 46.7973C132.836 46.6326 132.363 46.4679 132.059 46.3032C131.754 46.1384 131.527 45.9469 131.377 45.7285C131.23 45.5064 131.156 45.2451 131.156 44.9443C131.156 44.4609 131.368 44.067 131.79 43.7626C132.213 43.4583 132.762 43.3061 133.439 43.3061C134.119 43.3061 134.676 43.4833 135.109 43.8378C135.543 44.1887 135.759 44.6399 135.759 45.1913H135.115C135.115 44.7867 134.961 44.4627 134.653 44.2192C134.345 43.9757 133.939 43.8539 133.434 43.8539C132.936 43.8539 132.538 43.9542 132.241 44.1547C131.944 44.3552 131.795 44.6166 131.795 44.9389C131.795 45.2361 131.926 45.4796 132.188 45.6694C132.449 45.8556 132.882 46.0257 133.487 46.1796C134.096 46.3336 134.554 46.4947 134.862 46.663C135.174 46.8313 135.408 47.0336 135.566 47.27C135.724 47.5027 135.802 47.7766 135.802 48.0917C135.802 48.593 135.586 48.9923 135.152 49.2895C134.723 49.5867 134.162 49.7353 133.471 49.7353C132.999 49.7353 132.569 49.6601 132.182 49.5097C131.795 49.3557 131.491 49.1373 131.269 48.8544C131.051 48.568 130.941 48.2278 130.941 47.8339H131.586C131.586 48.26 131.754 48.5948 132.091 48.8383C132.431 49.0782 132.891 49.1982 133.471 49.1982C133.98 49.1982 134.386 49.0979 134.69 48.8974C134.998 48.6933 135.152 48.4265 135.152 48.0971ZM142.773 46.6791H139.674V49.1069H143.246V49.6494H139.035V43.392H143.225V43.9453H139.674V46.1313H142.773V46.6791ZM151.49 49.6494H150.851L147.08 44.4018V49.6494H146.441V43.392H147.08L150.851 48.6396V43.392H151.49V49.6494ZM157.145 48.5053L157.279 48.978L157.419 48.5107L159.39 43.392H160.083L157.596 49.6494H156.968L154.481 43.392H155.179L157.145 48.5053ZM168.091 46.8349C168.091 47.7158 167.853 48.4194 167.376 48.9457C166.9 49.4721 166.261 49.7353 165.459 49.7353C164.66 49.7353 164.019 49.4703 163.536 48.9404C163.056 48.4104 162.816 47.6996 162.816 46.808V46.2172C162.816 45.6407 162.924 45.1323 163.139 44.6918C163.353 44.2514 163.661 43.9112 164.062 43.6713C164.467 43.4278 164.929 43.3061 165.448 43.3061C166.225 43.3061 166.854 43.5603 167.333 44.0688C167.817 44.5737 168.069 45.254 168.091 46.1098V46.8349ZM167.457 46.2065C167.457 45.476 167.276 44.9049 166.914 44.4931C166.556 44.0777 166.068 43.8701 165.448 43.8701C164.836 43.8701 164.349 44.0777 163.987 44.4931C163.629 44.9049 163.45 45.4868 163.45 46.2387V46.8349C163.45 47.5618 163.631 48.1347 163.993 48.5536C164.354 48.9726 164.843 49.1821 165.459 49.1821C166.082 49.1821 166.571 48.9744 166.925 48.559C167.28 48.1437 167.457 47.5618 167.457 46.8134V46.2065ZM172.167 49.1069H175.454V49.6494H171.528V43.392H172.167V49.1069ZM180.524 48.5053L180.658 48.978L180.797 48.5107L182.769 43.392H183.462L180.975 49.6494H180.346L177.859 43.392H178.558L180.524 48.5053ZM190.196 46.6791H187.097V49.1069H190.669V49.6494H186.458V43.392H190.647V43.9453H187.097V46.1313H190.196V46.6791ZM193.864 49.6494V43.392H195.765C196.317 43.392 196.811 43.5102 197.248 43.7465C197.685 43.9828 198.025 44.3176 198.268 44.7509C198.515 45.1806 198.643 45.6658 198.65 46.2065V46.7919C198.65 47.3469 198.53 47.8411 198.29 48.2744C198.053 48.704 197.715 49.0388 197.275 49.2787C196.838 49.5187 196.338 49.6422 195.776 49.6494H193.864ZM194.503 43.9453V49.1069H195.728C196.422 49.1069 196.976 48.8974 197.387 48.4785C197.803 48.0595 198.011 47.4866 198.011 46.7597V46.2495C198.011 45.5512 197.808 44.9926 197.404 44.5737C196.999 44.1547 196.448 43.9453 195.749 43.9453H194.503ZM207.098 46.8349C207.098 47.7158 206.86 48.4194 206.383 48.9457C205.907 49.4721 205.268 49.7353 204.466 49.7353C203.667 49.7353 203.026 49.4703 202.543 48.9404C202.063 48.4104 201.823 47.6996 201.823 46.808V46.2172C201.823 45.6407 201.931 45.1323 202.146 44.6918C202.36 44.2514 202.668 43.9112 203.069 43.6713C203.474 43.4278 203.936 43.3061 204.455 43.3061C205.232 43.3061 205.861 43.5603 206.34 44.0688C206.824 44.5737 207.076 45.254 207.098 46.1098V46.8349ZM206.464 46.2065C206.464 45.476 206.283 44.9049 205.922 44.4931C205.563 44.0777 205.075 43.8701 204.455 43.8701C203.843 43.8701 203.356 44.0777 202.994 44.4931C202.636 44.9049 202.457 45.4868 202.457 46.2387V46.8349C202.457 47.5618 202.638 48.1347 203 48.5536C203.361 48.9726 203.85 49.1821 204.466 49.1821C205.089 49.1821 205.578 48.9744 205.932 48.559C206.287 48.1437 206.464 47.5618 206.464 46.8134V46.2065ZM213.064 47.1357H211.163V49.6494H210.524V43.392H212.742C213.462 43.392 214.024 43.5603 214.429 43.8969C214.837 44.2335 215.041 44.6954 215.041 45.2827C215.041 45.6944 214.916 46.0543 214.665 46.3622C214.414 46.6666 214.083 46.8761 213.671 46.9907L215.326 49.5956V49.6494H214.638L213.064 47.1357ZM211.163 46.5878H212.86C213.326 46.5878 213.698 46.4679 213.977 46.228C214.257 45.9881 214.396 45.6783 214.396 45.2988C214.396 44.8798 214.251 44.5504 213.961 44.3105C213.675 44.0706 213.274 43.9488 212.758 43.9453H211.163V46.5878ZM222.259 47.9789H219.224L218.558 49.6494H217.892L220.438 43.392H221.056L223.58 49.6494H222.92L222.259 47.9789ZM219.439 47.4311H222.039L220.744 44.1601L219.439 47.4311Z" fill="#F6F6F6"/>
<path d="M95.2297 30.6024C95.132 31.5155 94.7756 32.2235 94.1603 32.7264C93.5451 33.2294 92.7272 33.4808 91.7067 33.4808C90.613 33.4808 89.7341 33.1219 89.07 32.4042C88.4108 31.6815 88.0812 30.6879 88.0812 29.4232V28.7347C88.0812 27.934 88.2302 27.2308 88.528 26.6254C88.8307 26.015 89.2629 25.5438 89.8244 25.2118C90.3908 24.8798 91.0451 24.7137 91.7873 24.7137C92.7834 24.7137 93.5817 24.9725 94.1823 25.4901C94.7878 26.0028 95.1369 26.7157 95.2297 27.6288H93.8747C93.7868 26.994 93.5695 26.535 93.2228 26.2518C92.881 25.9686 92.4025 25.827 91.7873 25.827C91.0402 25.827 90.4616 26.076 90.0515 26.5741C89.6462 27.0673 89.4411 27.7753 89.4362 28.6981V29.4745C89.4362 30.3973 89.6291 31.1127 90.0148 31.6205C90.4055 32.1234 90.9694 32.3749 91.7067 32.3749C92.3659 32.3749 92.8664 32.2406 93.2082 31.972C93.5549 31.6986 93.777 31.2421 93.8747 30.6024H95.2297ZM104.624 31.3202H100.815L100.01 33.3636H98.6255L102.134 24.8309H103.35L106.807 33.3636H105.43L104.624 31.3202ZM101.255 30.2142H104.192L102.734 26.4862L101.255 30.2142ZM112.436 24.8309L115.3 31.5033L118.149 24.8309H119.914V33.3636H118.567V30.4266L118.706 26.5228L115.791 33.3636H114.795L111.887 26.5521L112.026 30.4266V33.3636H110.679V24.8309H112.436ZM126.101 33.3636H124.738V24.8309H126.101V33.3636ZM132.272 32.2577H136.55V33.3636H130.917V24.8309H132.272V32.2577ZM145.688 31.3202H141.879L141.073 33.3636H139.689L143.197 24.8309H144.413L147.87 33.3636H146.493L145.688 31.3202ZM142.319 30.2142H145.256L143.798 26.4862L142.319 30.2142ZM165.04 32.265C164.718 32.6703 164.271 32.9755 163.7 33.1805C163.134 33.3807 162.482 33.4808 161.744 33.4808C160.582 33.4808 159.65 33.1171 158.947 32.3895C158.243 31.662 157.887 30.683 157.877 29.4525V28.7933C157.877 27.514 158.202 26.5155 158.851 25.7977C159.506 25.0751 160.424 24.7137 161.605 24.7137C162.582 24.7137 163.366 24.9432 163.956 25.4022C164.547 25.8612 164.908 26.5326 165.04 27.4164H163.693C163.507 26.3568 162.816 25.827 161.62 25.827C160.844 25.827 160.253 26.0785 159.847 26.5814C159.442 27.0844 159.24 27.8217 159.24 28.7933V29.4086C159.24 30.3363 159.464 31.0638 159.913 31.5912C160.367 32.1136 160.985 32.3749 161.766 32.3749C162.655 32.3749 163.297 32.1942 163.693 31.8329V30.0897H161.635V29.035H165.04V32.265ZM176.185 24.8309V30.5438C176.185 31.4325 175.88 32.1454 175.27 32.6825C174.659 33.2147 173.844 33.4808 172.823 33.4808C171.798 33.4808 170.985 33.2245 170.384 32.7118C169.784 32.1942 169.476 31.4911 169.462 30.6024V24.8309H170.802V30.5438C170.802 31.1346 170.975 31.5887 171.322 31.9061C171.673 32.2186 172.174 32.3749 172.823 32.3749C173.463 32.3749 173.956 32.2211 174.303 31.9135C174.654 31.601 174.83 31.1444 174.83 30.5438V24.8309H176.185ZM182.188 33.3636H180.826V24.8309H182.188V33.3636ZM188.763 24.8309L191.627 31.5033L194.476 24.8309H196.241V33.3636H194.893V30.4266L195.032 26.5228L192.117 33.3636H191.121L188.214 26.5521L188.353 30.4266V33.3636H187.005V24.8309H188.763ZM206.097 31.3202H202.288L201.482 33.3636H200.098L203.606 24.8309H204.822L208.279 33.3636H206.902L206.097 31.3202ZM202.728 30.2142H205.665L204.207 26.4862L202.728 30.2142ZM215.55 30.0751H213.506V33.3636H212.151V24.8309H215.271C216.311 24.8309 217.112 25.058 217.674 25.5121C218.24 25.9662 218.523 26.6083 218.523 27.4384C218.523 28.5516 217.95 29.3256 216.802 29.7601L218.911 33.2904V33.3636H217.461L215.55 30.0751ZM213.506 28.9691H215.308C215.879 28.9691 216.331 28.8373 216.663 28.5736C217 28.3051 217.168 27.9437 217.168 27.4896C217.168 27.0013 217.005 26.6229 216.678 26.3544C216.35 26.0858 215.879 25.9515 215.264 25.9515H213.506V28.9691ZM228.02 31.3202H224.212L223.406 33.3636H222.022L225.53 24.8309H226.746L230.203 33.3636H228.826L228.02 31.3202ZM224.651 30.2142H227.588L226.13 26.4862L224.651 30.2142ZM228.738 22.1283C228.738 22.6556 228.587 23.0829 228.284 23.41C227.986 23.7372 227.612 23.9008 227.163 23.9008C226.963 23.9008 226.79 23.8763 226.643 23.8275C226.497 23.7787 226.304 23.6786 226.065 23.5272C225.83 23.3759 225.659 23.2855 225.552 23.2562C225.449 23.222 225.33 23.205 225.193 23.205C224.993 23.205 224.822 23.2831 224.68 23.4393C224.539 23.5907 224.468 23.786 224.468 24.0253L223.56 23.974C223.56 23.4515 223.706 23.0194 223.999 22.6776C224.297 22.3358 224.673 22.1649 225.127 22.1649C225.298 22.1649 225.452 22.1893 225.588 22.2382C225.725 22.287 225.911 22.3822 226.145 22.5238C226.379 22.6654 226.558 22.7582 226.68 22.8021C226.807 22.8461 226.946 22.868 227.097 22.868C227.307 22.868 227.481 22.785 227.617 22.619C227.759 22.453 227.83 22.2601 227.83 22.0404L228.738 22.1283ZM239.326 29.5111H235.43V32.2577H239.963V33.3636H234.075V24.8309H239.919V25.9515H235.43V28.3978H239.326V29.5111ZM248.955 31.181C248.955 30.7904 248.806 30.4877 248.508 30.2728C248.215 30.058 247.71 29.8602 246.992 29.6796C246.274 29.4989 245.705 29.3036 245.285 29.0936C244.333 28.6151 243.857 27.9388 243.857 27.0648C243.857 26.3666 244.153 25.8002 244.743 25.3656C245.339 24.931 246.103 24.7137 247.036 24.7137C247.993 24.7137 248.774 24.9579 249.38 25.4462C249.99 25.9344 250.295 26.5594 250.295 27.3212H248.94C248.94 26.8427 248.767 26.474 248.42 26.2152C248.078 25.9515 247.612 25.8197 247.021 25.8197C246.469 25.8197 246.03 25.9296 245.703 26.1493C245.376 26.3641 245.212 26.6669 245.212 27.0575C245.212 27.3749 245.361 27.641 245.659 27.8558C245.962 28.0707 246.494 28.2758 247.256 28.4711C248.017 28.6664 248.613 28.8885 249.043 29.1376C249.472 29.3817 249.792 29.6698 250.002 30.0018C250.212 30.3339 250.317 30.722 250.317 31.1664C250.317 31.8842 250.019 32.4506 249.424 32.8656C248.833 33.2758 248.051 33.4808 247.08 33.4808C246.069 33.4808 245.229 33.2343 244.56 32.7411C243.896 32.243 243.564 31.5985 243.564 30.8075H244.926C244.926 31.3055 245.114 31.6937 245.49 31.972C245.866 32.2504 246.396 32.3895 247.08 32.3895C247.695 32.3895 248.161 32.2797 248.479 32.0599C248.796 31.8353 248.955 31.5424 248.955 31.181Z" fill="#F6F6F6"/>
<rect width="77" height="71" fill="#FFBB91"/>
<path d="M27.5742 40.473C27.3659 42.4209 26.6055 43.9314 25.293 45.0043C23.9805 46.0772 22.2357 46.6136 20.0586 46.6136C17.7253 46.6136 15.8503 45.848 14.4336 44.3168C13.0273 42.7751 12.3242 40.6553 12.3242 37.9574V36.4886C12.3242 34.7803 12.6419 33.2803 13.2773 31.9886C13.9232 30.6866 14.8451 29.6814 16.043 28.973C17.2513 28.2647 18.6471 27.9105 20.2305 27.9105C22.3555 27.9105 24.0586 28.4626 25.3398 29.5668C26.6315 30.6605 27.3763 32.1814 27.5742 34.1293H24.6836C24.4961 32.7751 24.0326 31.7959 23.293 31.1918C22.5638 30.5876 21.543 30.2855 20.2305 30.2855C18.6367 30.2855 17.4023 30.8168 16.5273 31.8793C15.6628 32.9314 15.2253 34.4418 15.2148 36.4105V38.0668C15.2148 40.0355 15.6263 41.5616 16.4492 42.6449C17.2826 43.7178 18.4857 44.2543 20.0586 44.2543C21.4648 44.2543 22.5326 43.9678 23.2617 43.3949C24.0013 42.8116 24.4753 41.8376 24.6836 40.473H27.5742ZM40.1367 50.0551H38.0996V26.4574H40.1367V50.0551ZM66.3164 44.0199C65.6289 44.8845 64.6758 45.5355 63.457 45.973C62.2487 46.4001 60.8581 46.6136 59.2852 46.6136C56.806 46.6136 54.8164 45.8376 53.3164 44.2855C51.8164 42.7334 51.056 40.6449 51.0352 38.0199V36.6136C51.0352 33.8845 51.7279 31.7543 53.1133 30.223C54.5091 28.6814 56.4674 27.9105 58.9883 27.9105C61.0716 27.9105 62.7435 28.4001 64.0039 29.3793C65.2643 30.3584 66.0352 31.7907 66.3164 33.6761H63.4414C63.0456 31.4157 61.5716 30.2855 59.0195 30.2855C57.3633 30.2855 56.1029 30.822 55.2383 31.8949C54.3737 32.9678 53.9414 34.5407 53.9414 36.6136V37.9261C53.9414 39.9053 54.4206 41.4574 55.3789 42.5824C56.3477 43.697 57.6654 44.2543 59.332 44.2543C61.2279 44.2543 62.5977 43.8689 63.4414 43.098V39.3793H59.0508V37.1293H66.3164V44.0199Z" fill="#4B4A4A"/>
</g>
</svg>
