<svg width="273" height="71" viewBox="0 0 273 71" fill="none" xmlns="http://www.w3.org/2000/svg">
<rect x="71" width="201.277" height="71" fill="#515070"/>
<path d="M115.238 50.0221H113.574L113.579 49.4185H115.238C115.753 49.4185 116.197 49.315 116.568 49.108C116.939 48.8971 117.224 48.6021 117.423 48.2232C117.626 47.8443 117.728 47.4029 117.728 46.899V46.3131C117.728 45.9264 117.669 45.5787 117.552 45.2701C117.439 44.9615 117.275 44.6978 117.06 44.4791C116.845 44.2603 116.587 44.0943 116.286 43.981C115.986 43.8639 115.648 43.8053 115.273 43.8053H113.538V43.1959H115.273C115.734 43.1959 116.156 43.2701 116.538 43.4185C116.925 43.5631 117.259 43.774 117.54 44.0514C117.822 44.3287 118.038 44.6588 118.191 45.0416C118.347 45.4244 118.425 45.8521 118.425 46.3248V46.899C118.425 47.5279 118.29 48.0768 118.021 48.5455C117.751 49.0143 117.376 49.3775 116.896 49.6353C116.419 49.8932 115.866 50.0221 115.238 50.0221ZM113.902 43.1959V50.0221H113.204V43.1959H113.902ZM126.762 49.4185V50.0221H122.649V49.4185H126.762ZM122.872 43.1959V50.0221H122.174V43.1959H122.872ZM126.252 46.1842V46.7818H122.649V46.1842H126.252ZM126.745 43.1959V43.8053H122.649V43.1959H126.745ZM134.379 48.3287C134.379 48.1529 134.346 47.9947 134.279 47.8541C134.217 47.7135 134.113 47.5865 133.969 47.4732C133.824 47.36 133.629 47.2564 133.383 47.1627C133.137 47.065 132.832 46.9732 132.469 46.8873C132.094 46.7935 131.754 46.6881 131.449 46.5709C131.148 46.4537 130.89 46.3189 130.676 46.1666C130.465 46.0103 130.303 45.8287 130.189 45.6217C130.076 45.4107 130.019 45.1666 130.019 44.8893C130.019 44.6197 130.08 44.3756 130.201 44.1568C130.322 43.9381 130.494 43.7506 130.717 43.5943C130.939 43.4342 131.201 43.3131 131.502 43.231C131.806 43.1451 132.14 43.1021 132.504 43.1021C133.019 43.1021 133.467 43.192 133.846 43.3717C134.224 43.5514 134.517 43.7975 134.724 44.11C134.931 44.4185 135.035 44.7662 135.035 45.1529H134.338C134.338 44.8756 134.265 44.6275 134.121 44.4088C133.976 44.19 133.767 44.0182 133.494 43.8932C133.224 43.7682 132.892 43.7057 132.498 43.7057C132.111 43.7057 131.785 43.7584 131.519 43.8639C131.254 43.9693 131.053 44.1119 130.916 44.2916C130.783 44.4674 130.717 44.6627 130.717 44.8775C130.717 45.0338 130.748 45.1783 130.81 45.3111C130.877 45.44 130.984 45.5592 131.133 45.6685C131.285 45.7779 131.486 45.8814 131.736 45.9791C131.99 46.0768 132.303 46.1705 132.674 46.2603C133.045 46.3502 133.379 46.4557 133.676 46.5768C133.972 46.6978 134.224 46.8404 134.431 47.0045C134.642 47.1646 134.803 47.3541 134.912 47.5728C135.025 47.7877 135.082 48.0357 135.082 48.317C135.082 48.5982 135.019 48.8502 134.894 49.0728C134.769 49.2955 134.592 49.485 134.361 49.6412C134.135 49.7935 133.865 49.9107 133.553 49.9928C133.244 50.0748 132.908 50.1158 132.545 50.1158C132.217 50.1158 131.889 50.0768 131.56 49.9986C131.236 49.9205 130.939 49.7975 130.67 49.6295C130.4 49.4615 130.185 49.2467 130.025 48.985C129.865 48.7193 129.785 48.4029 129.785 48.0357H130.482C130.482 48.3131 130.541 48.5475 130.658 48.7389C130.779 48.9264 130.939 49.0787 131.139 49.1959C131.342 49.3092 131.564 49.3932 131.806 49.4478C132.049 49.4986 132.295 49.524 132.545 49.524C132.92 49.524 133.244 49.4732 133.517 49.3717C133.791 49.2701 134.002 49.1295 134.15 48.9498C134.303 48.7701 134.379 48.5631 134.379 48.3287ZM143.202 49.4185V50.0221H139.089V49.4185H143.202ZM139.312 43.1959V50.0221H138.614V43.1959H139.312ZM142.692 46.1842V46.7818H139.089V46.1842H142.692ZM143.185 43.1959V43.8053H139.089V43.1959H143.185ZM152.196 43.1959V50.0221H151.498L147.391 44.3033V50.0221H146.694V43.1959H147.391L151.498 48.9029V43.1959H152.196ZM158.67 48.7682L160.82 43.1959H161.57L158.863 50.0221H158.306L158.67 48.7682ZM156.22 43.1959L158.365 48.7682L158.728 50.0221H158.172L155.465 43.1959H156.22ZM170.311 46.2779V46.9459C170.311 47.4303 170.243 47.8678 170.106 48.2584C169.974 48.649 169.78 48.983 169.526 49.2603C169.276 49.5377 168.974 49.7506 168.618 49.899C168.267 50.0435 167.872 50.1158 167.435 50.1158C167.005 50.1158 166.612 50.0435 166.257 49.899C165.905 49.7506 165.602 49.5377 165.349 49.2603C165.095 48.983 164.897 48.649 164.757 48.2584C164.62 47.8678 164.552 47.4303 164.552 46.9459V46.2779C164.552 45.7935 164.62 45.356 164.757 44.9654C164.894 44.5748 165.087 44.2408 165.337 43.9635C165.591 43.6822 165.894 43.4693 166.245 43.3248C166.601 43.1764 166.995 43.1021 167.429 43.1021C167.866 43.1021 168.261 43.1764 168.612 43.3248C168.968 43.4693 169.27 43.6822 169.52 43.9635C169.774 44.2408 169.97 44.5748 170.106 44.9654C170.243 45.356 170.311 45.7935 170.311 46.2779ZM169.62 46.9459V46.2662C169.62 45.8717 169.571 45.5182 169.474 45.2057C169.376 44.8932 169.233 44.6256 169.046 44.4029C168.858 44.1803 168.628 44.0103 168.354 43.8932C168.085 43.776 167.776 43.7174 167.429 43.7174C167.089 43.7174 166.784 43.776 166.515 43.8932C166.245 44.0103 166.017 44.1803 165.829 44.4029C165.642 44.6256 165.497 44.8932 165.395 45.2057C165.298 45.5182 165.249 45.8717 165.249 46.2662V46.9459C165.249 47.3404 165.298 47.6959 165.395 48.0123C165.497 48.3287 165.642 48.5982 165.829 48.8209C166.02 49.0435 166.251 49.2135 166.52 49.3307C166.794 49.4478 167.099 49.5064 167.435 49.5064C167.786 49.5064 168.097 49.4478 168.366 49.3307C168.636 49.2135 168.864 49.0435 169.052 48.8209C169.239 48.5982 169.38 48.3287 169.474 48.0123C169.571 47.6959 169.62 47.3404 169.62 46.9459ZM178.338 49.4185V50.0221H174.535V49.4185H178.338ZM174.758 43.1959V50.0221H174.061V43.1959H174.758ZM184.173 48.7682L186.324 43.1959H187.074L184.367 50.0221H183.81L184.173 48.7682ZM181.724 43.1959L183.869 48.7682L184.232 50.0221H183.675L180.968 43.1959H181.724ZM194.936 49.4185V50.0221H190.823V49.4185H194.936ZM191.046 43.1959V50.0221H190.348V43.1959H191.046ZM194.427 46.1842V46.7818H190.823V46.1842H194.427ZM194.919 43.1959V43.8053H190.823V43.1959H194.919ZM200.461 50.0221H198.797L198.803 49.4185H200.461C200.977 49.4185 201.42 49.315 201.791 49.108C202.162 48.8971 202.447 48.6021 202.647 48.2232C202.85 47.8443 202.951 47.4029 202.951 46.899V46.3131C202.951 45.9264 202.893 45.5787 202.775 45.2701C202.662 44.9615 202.498 44.6978 202.283 44.4791C202.068 44.2603 201.811 44.0943 201.51 43.981C201.209 43.8639 200.871 43.8053 200.496 43.8053H198.762V43.1959H200.496C200.957 43.1959 201.379 43.2701 201.762 43.4185C202.149 43.5631 202.482 43.774 202.764 44.0514C203.045 44.3287 203.262 44.6588 203.414 45.0416C203.57 45.4244 203.649 45.8521 203.649 46.3248V46.899C203.649 47.5279 203.514 48.0768 203.244 48.5455C202.975 49.0143 202.6 49.3775 202.119 49.6353C201.643 49.8932 201.09 50.0221 200.461 50.0221ZM199.125 43.1959V50.0221H198.428V43.1959H199.125ZM212.865 46.2779V46.9459C212.865 47.4303 212.796 47.8678 212.66 48.2584C212.527 48.649 212.333 48.983 212.079 49.2603C211.829 49.5377 211.527 49.7506 211.171 49.899C210.82 50.0435 210.425 50.1158 209.988 50.1158C209.558 50.1158 209.165 50.0435 208.81 49.899C208.458 49.7506 208.156 49.5377 207.902 49.2603C207.648 48.983 207.451 48.649 207.31 48.2584C207.173 47.8678 207.105 47.4303 207.105 46.9459V46.2779C207.105 45.7935 207.173 45.356 207.31 44.9654C207.447 44.5748 207.64 44.2408 207.89 43.9635C208.144 43.6822 208.447 43.4693 208.798 43.3248C209.154 43.1764 209.548 43.1021 209.982 43.1021C210.419 43.1021 210.814 43.1764 211.165 43.3248C211.521 43.4693 211.824 43.6822 212.074 43.9635C212.327 44.2408 212.523 44.5748 212.66 44.9654C212.796 45.356 212.865 45.7935 212.865 46.2779ZM212.173 46.9459V46.2662C212.173 45.8717 212.124 45.5182 212.027 45.2057C211.929 44.8932 211.786 44.6256 211.599 44.4029C211.411 44.1803 211.181 44.0103 210.908 43.8932C210.638 43.776 210.329 43.7174 209.982 43.7174C209.642 43.7174 209.337 43.776 209.068 43.8932C208.798 44.0103 208.57 44.1803 208.382 44.4029C208.195 44.6256 208.05 44.8932 207.949 45.2057C207.851 45.5182 207.802 45.8717 207.802 46.2662V46.9459C207.802 47.3404 207.851 47.6959 207.949 48.0123C208.05 48.3287 208.195 48.5982 208.382 48.8209C208.574 49.0435 208.804 49.2135 209.074 49.3307C209.347 49.4478 209.652 49.5064 209.988 49.5064C210.339 49.5064 210.65 49.4478 210.919 49.3307C211.189 49.2135 211.417 49.0435 211.605 48.8209C211.792 48.5982 211.933 48.3287 212.027 48.0123C212.124 47.6959 212.173 47.3404 212.173 46.9459ZM216.596 43.1959H219.016C219.399 43.1959 219.745 43.2428 220.053 43.3365C220.366 43.4264 220.631 43.5592 220.85 43.735C221.069 43.9068 221.237 44.1217 221.354 44.3795C221.471 44.6334 221.53 44.9244 221.53 45.2525C221.53 45.5846 221.458 45.8814 221.313 46.1432C221.169 46.4049 220.967 46.6236 220.71 46.7994C220.456 46.9752 220.161 47.0982 219.825 47.1685L219.585 47.2799H217.047L217.036 46.6764H219.145C219.52 46.6764 219.831 46.6119 220.077 46.483C220.327 46.3541 220.514 46.1822 220.639 45.9674C220.764 45.7525 220.827 45.5221 220.827 45.276C220.827 44.9791 220.756 44.7213 220.616 44.5025C220.479 44.2799 220.276 44.108 220.006 43.9869C219.737 43.8658 219.407 43.8053 219.016 43.8053H217.299V50.0221H216.596V43.1959ZM221.09 50.0221L219.215 47.0162L219.96 47.0103L221.835 49.9635V50.0221H221.09ZM227.769 44.0103L225.379 50.0221H224.652L227.43 43.1959H227.928L227.769 44.0103ZM230.137 50.0221L227.752 43.9986L227.6 43.1959H228.098L230.857 50.0221H230.137ZM229.68 47.6021V48.1998H225.818V47.6021H229.68Z" fill="#F6F6F6"/>
<path d="M90.1844 29.7396H91.7284C91.662 30.3649 91.4711 30.9238 91.1556 31.4163C90.8457 31.9088 90.4058 32.2962 89.8358 32.5784C89.2714 32.8607 88.5713 33.0018 87.7357 33.0018C87.1104 33.0018 86.5459 32.8966 86.0424 32.6863C85.5388 32.4705 85.1071 32.1662 84.7474 31.7733C84.3877 31.3748 84.111 30.8961 83.9174 30.3372C83.7237 29.7783 83.6268 29.153 83.6268 28.4612V27.6146C83.6268 26.9228 83.7237 26.2975 83.9174 25.7386C84.111 25.1797 84.3905 24.701 84.7557 24.3026C85.121 23.9041 85.5609 23.5998 86.0756 23.3895C86.5957 23.1736 87.1768 23.0657 87.8187 23.0657C88.6267 23.0657 89.3073 23.2068 89.8607 23.4891C90.4141 23.7658 90.8457 24.1531 91.1556 24.6512C91.4711 25.1492 91.662 25.722 91.7284 26.3694H90.1844C90.1291 25.9433 90.0157 25.5781 89.8441 25.2737C89.6726 24.9694 89.4235 24.737 89.097 24.5765C88.7705 24.4105 88.3444 24.3275 87.8187 24.3275C87.3815 24.3275 86.9969 24.4022 86.6649 24.5516C86.3329 24.6955 86.0534 24.9113 85.8265 25.199C85.6052 25.4813 85.4364 25.8244 85.3202 26.2283C85.2095 26.6323 85.1542 27.0916 85.1542 27.6063V28.4612C85.1542 28.9482 85.204 29.3937 85.3036 29.7977C85.4087 30.1961 85.5664 30.542 85.7767 30.8353C85.987 31.1286 86.2554 31.3554 86.5819 31.5159C86.9084 31.6709 87.293 31.7484 87.7357 31.7484C88.2891 31.7484 88.7318 31.6709 89.0638 31.5159C89.3959 31.361 89.6477 31.1341 89.8192 30.8353C89.9963 30.5309 90.118 30.1657 90.1844 29.7396ZM99.9312 24.5516L96.6358 32.869H95.067L99.043 23.1985H100.047L99.9312 24.5516ZM102.778 32.869L99.5079 24.5184L99.4 23.1985H100.413L104.339 32.869H102.778ZM102.554 29.2913V30.553H96.8101V29.2913H102.554ZM108.757 23.1985H110.201L113.447 30.7606L116.684 23.1985H118.128L114.003 32.869H112.882L108.757 23.1985ZM108.217 23.1985H109.52L109.744 29.532V32.869H108.217V23.1985ZM117.373 23.1985H118.684V32.869H117.149V29.532L117.373 23.1985ZM125.177 23.1985V32.869H123.642V23.1985H125.177ZM136.526 31.6072V32.869H131.313V31.6072H136.526ZM131.687 23.1985V32.869H130.151V23.1985H131.687ZM144.463 24.5516L141.168 32.869H139.599L143.575 23.1985H144.579L144.463 24.5516ZM147.31 32.869L144.04 24.5184L143.932 23.1985H144.945L148.871 32.869H147.31ZM147.086 29.2913V30.553H141.342V29.2913H147.086ZM167.31 27.9549V31.6238C167.172 31.8009 166.956 31.9974 166.663 32.2132C166.375 32.429 165.979 32.6144 165.476 32.7693C164.978 32.9243 164.341 33.0018 163.567 33.0018C162.925 33.0018 162.335 32.8994 161.799 32.6946C161.267 32.4844 160.805 32.1828 160.412 31.7899C160.025 31.3914 159.723 30.9072 159.508 30.3372C159.297 29.7617 159.192 29.1087 159.192 28.3782V27.681C159.192 26.956 159.286 26.3086 159.474 25.7386C159.663 25.1686 159.936 24.6844 160.296 24.2859C160.661 23.8875 161.104 23.5859 161.624 23.3812C162.15 23.1709 162.745 23.0657 163.409 23.0657C164.228 23.0657 164.909 23.1985 165.451 23.4642C165.999 23.7243 166.422 24.084 166.721 24.5433C167.025 25.0026 167.219 25.5283 167.302 26.1204H165.783C165.722 25.7829 165.603 25.4785 165.426 25.2073C165.249 24.9362 164.997 24.7231 164.671 24.5682C164.35 24.4077 163.935 24.3275 163.426 24.3275C162.972 24.3275 162.576 24.4022 162.239 24.5516C161.901 24.701 161.619 24.9196 161.392 25.2073C161.171 25.4951 161.004 25.8465 160.894 26.2615C160.789 26.671 160.736 27.1387 160.736 27.6644V28.3782C160.736 28.915 160.803 29.3937 160.935 29.8143C161.068 30.2293 161.259 30.5807 161.508 30.8685C161.763 31.1562 162.064 31.3748 162.413 31.5242C162.767 31.6736 163.163 31.7484 163.6 31.7484C164.286 31.7484 164.787 31.6764 165.102 31.5325C165.418 31.3831 165.642 31.2475 165.775 31.1258V29.1502H163.442V27.9549H167.31ZM177.887 23.1985H179.431V29.6732C179.431 30.4036 179.257 31.0179 178.908 31.5159C178.565 32.0084 178.103 32.3792 177.522 32.6282C176.946 32.8773 176.31 33.0018 175.613 33.0018C174.888 33.0018 174.238 32.8773 173.662 32.6282C173.092 32.3792 172.641 32.0084 172.309 31.5159C171.977 31.0179 171.811 30.4036 171.811 29.6732V23.1985H173.33V29.6732C173.33 30.1491 173.424 30.542 173.612 30.8519C173.806 31.1562 174.074 31.3831 174.417 31.5325C174.761 31.6764 175.159 31.7484 175.613 31.7484C176.072 31.7484 176.471 31.6764 176.808 31.5325C177.151 31.3831 177.417 31.1562 177.605 30.8519C177.793 30.542 177.887 30.1491 177.887 29.6732V23.1985ZM185.733 23.1985V32.869H184.197V23.1985H185.733ZM191.246 23.1985H192.691L195.936 30.7606L199.174 23.1985H200.618L196.493 32.869H195.372L191.246 23.1985ZM190.707 23.1985H192.01L192.234 29.532V32.869H190.707V23.1985ZM199.863 23.1985H201.174V32.869H199.639V29.532L199.863 23.1985ZM209.9 24.5516L206.605 32.869H205.036L209.012 23.1985H210.016L209.9 24.5516ZM212.747 32.869L209.477 24.5184L209.369 23.1985H210.381L214.308 32.869H212.747ZM212.523 29.2913V30.553H206.779V29.2913H212.523ZM218.178 23.1985H221.714C222.3 23.1985 222.823 23.265 223.282 23.3978C223.742 23.525 224.129 23.7132 224.445 23.9622C224.76 24.2112 224.998 24.5184 225.158 24.8836C225.324 25.2488 225.407 25.6694 225.407 26.1453C225.407 26.6212 225.311 27.0446 225.117 27.4153C224.929 27.7806 224.655 28.0905 224.295 28.345C223.941 28.5941 223.518 28.785 223.025 28.9178L222.569 29.1419H219.298L219.282 27.8802H221.755C222.226 27.8802 222.616 27.8082 222.926 27.6644C223.235 27.515 223.468 27.3157 223.623 27.0667C223.783 26.8122 223.864 26.5272 223.864 26.2117C223.864 25.8631 223.789 25.5587 223.639 25.2986C223.49 25.0386 223.255 24.8366 222.934 24.6927C222.618 24.5433 222.212 24.4686 221.714 24.4686H219.721V32.869H218.178V23.1985ZM224.196 32.869L221.705 28.5609L223.324 28.5526L225.847 32.7859V32.869H224.196ZM233.727 24.5516L230.431 32.869H228.862L232.838 23.1985H233.843L233.727 24.5516ZM236.574 32.869L233.303 24.5184L233.195 23.1985H234.208L238.134 32.869H236.574ZM236.35 29.2913V30.553H230.605V29.2913H236.35ZM235.428 20.0359L236.466 20.1273C236.466 20.5312 236.386 20.8854 236.225 21.1898C236.065 21.4941 235.849 21.7293 235.578 21.8953C235.312 22.0613 235.01 22.1443 234.673 22.1443C234.391 22.1443 234.158 22.1056 233.976 22.0281C233.793 21.9451 233.63 21.8538 233.486 21.7542C233.342 21.6491 233.19 21.5578 233.029 21.4803C232.874 21.3973 232.681 21.3558 232.448 21.3558C232.216 21.3558 232.019 21.4443 231.859 21.6214C231.704 21.7985 231.626 22.0171 231.626 22.2772L230.589 22.2274C230.589 21.8234 230.666 21.4692 230.821 21.1649C230.982 20.855 231.198 20.6142 231.469 20.4427C231.74 20.2656 232.041 20.1771 232.373 20.1771C232.611 20.1771 232.819 20.2186 232.996 20.3016C233.179 20.379 233.35 20.4704 233.511 20.5755C233.671 20.6751 233.837 20.7664 234.009 20.8494C234.18 20.9269 234.377 20.9656 234.598 20.9656C234.831 20.9656 235.027 20.8771 235.187 20.7C235.348 20.5174 235.428 20.296 235.428 20.0359ZM248.686 31.6072V32.869H243.174V31.6072H248.686ZM243.548 23.1985V32.869H242.012V23.1985H243.548ZM247.964 27.241V28.4944H243.174V27.241H247.964ZM248.636 23.1985V24.4686H243.174V23.1985H248.636ZM258.358 30.3953C258.358 30.1906 258.322 30.008 258.25 29.8475C258.184 29.6815 258.068 29.532 257.902 29.3992C257.736 29.2609 257.506 29.1336 257.213 29.0174C256.919 28.9012 256.549 28.7905 256.1 28.6854C255.564 28.5526 255.079 28.4004 254.648 28.2288C254.216 28.0517 253.845 27.847 253.536 27.6146C253.231 27.3766 252.996 27.1027 252.83 26.7928C252.669 26.4829 252.589 26.126 252.589 25.722C252.589 25.3346 252.675 24.9804 252.847 24.6595C253.018 24.333 253.262 24.0508 253.577 23.8128C253.892 23.5748 254.272 23.3922 254.714 23.265C255.157 23.1321 255.649 23.0657 256.192 23.0657C256.966 23.0657 257.628 23.2013 258.176 23.4725C258.729 23.7381 259.152 24.095 259.446 24.5433C259.739 24.986 259.886 25.4757 259.886 26.0125H258.342C258.342 25.686 258.261 25.3955 258.101 25.1409C257.946 24.8864 257.708 24.6872 257.387 24.5433C257.072 24.3939 256.668 24.3192 256.175 24.3192C255.716 24.3192 255.334 24.38 255.03 24.5018C254.725 24.6235 254.498 24.7895 254.349 24.9998C254.2 25.2101 254.125 25.4481 254.125 25.7137C254.125 25.9018 254.169 26.0734 254.258 26.2283C254.346 26.3833 254.487 26.5244 254.681 26.6517C254.875 26.779 255.126 26.9007 255.436 27.0169C255.746 27.1331 256.123 27.2466 256.565 27.3572C257.102 27.4901 257.578 27.6478 257.993 27.8304C258.408 28.013 258.757 28.2261 259.039 28.4695C259.327 28.713 259.543 28.9925 259.686 29.3079C259.836 29.6234 259.911 29.9803 259.911 30.3787C259.911 30.7827 259.822 31.1479 259.645 31.4744C259.473 31.7954 259.224 32.0693 258.898 32.2962C258.577 32.5231 258.189 32.6974 257.736 32.8192C257.287 32.9409 256.789 33.0018 256.242 33.0018C255.755 33.0018 255.273 32.9409 254.797 32.8192C254.327 32.6919 253.898 32.5037 253.511 32.2547C253.129 32.0001 252.824 31.6847 252.598 31.3084C252.371 30.9266 252.257 30.4811 252.257 29.972H253.801C253.801 30.2929 253.865 30.5669 253.992 30.7938C254.119 31.0207 254.296 31.206 254.523 31.3499C254.75 31.4883 255.01 31.5906 255.304 31.657C255.597 31.7234 255.91 31.7567 256.242 31.7567C256.701 31.7567 257.088 31.7013 257.404 31.5906C257.719 31.4744 257.957 31.3139 258.118 31.1092C258.278 30.9044 258.358 30.6665 258.358 30.3953Z" fill="#F6F6F6"/>
<rect width="71.49" height="71" fill="#FFBB91"/>
<path d="M23.7637 40.1139H25.623C25.498 41.3431 25.1335 42.4056 24.5293 43.3014C23.9355 44.1972 23.123 44.8899 22.0918 45.3795C21.0605 45.8587 19.821 46.0983 18.373 46.0983C17.2376 46.0983 16.2168 45.9056 15.3105 45.5201C14.4043 45.1243 13.623 44.5618 12.9668 43.8326C12.321 43.1035 11.821 42.2337 11.4668 41.2233C11.123 40.2024 10.9512 39.067 10.9512 37.817V35.692C10.9512 34.442 11.123 33.3118 11.4668 32.3014C11.821 31.2806 12.3262 30.4056 12.9824 29.6764C13.6387 28.9368 14.4251 28.3743 15.3418 27.9889C16.2689 27.5931 17.3053 27.3951 18.4512 27.3951C19.8783 27.3951 21.097 27.6347 22.1074 28.1139C23.1283 28.5931 23.9355 29.2858 24.5293 30.192C25.1335 31.0983 25.498 32.1764 25.623 33.4264H23.7637C23.6387 32.4785 23.3678 31.6764 22.9512 31.0201C22.5449 30.3639 21.972 29.8639 21.2324 29.5201C20.4928 29.1764 19.5658 29.0045 18.4512 29.0045C17.5658 29.0045 16.7741 29.1608 16.0762 29.4733C15.3783 29.7753 14.7845 30.2233 14.2949 30.817C13.8053 31.4003 13.4303 32.1035 13.1699 32.9264C12.9199 33.7389 12.7949 34.6556 12.7949 35.6764V37.817C12.7949 38.8066 12.9147 39.7128 13.1543 40.5358C13.4043 41.3483 13.7637 42.0566 14.2324 42.6608C14.7116 43.2545 15.2949 43.7128 15.9824 44.0358C16.6803 44.3483 17.4772 44.5045 18.373 44.5045C19.498 44.5045 20.4303 44.3431 21.1699 44.0201C21.9199 43.6972 22.5033 43.2076 22.9199 42.5514C23.347 41.8951 23.6283 41.0826 23.7637 40.1139ZM36.1715 25.942V49.5397H34.7906V25.942H36.1715ZM60.6426 37.0514V43.6764C60.4134 43.9785 60.0176 44.3222 59.4551 44.7076C58.903 45.0826 58.1634 45.4108 57.2363 45.692C56.3092 45.9628 55.1582 46.0983 53.7832 46.0983C52.6165 46.0983 51.5488 45.9056 50.5801 45.5201C49.6217 45.1347 48.7884 44.5774 48.0801 43.8483C47.3822 43.1191 46.8405 42.2389 46.4551 41.2076C46.0697 40.166 45.877 38.9993 45.877 37.7076V35.6608C45.877 34.3899 46.054 33.2493 46.4082 32.2389C46.7624 31.2181 47.2728 30.3483 47.9395 29.6295C48.6061 28.9003 49.4082 28.3483 50.3457 27.9733C51.2936 27.5878 52.3509 27.3951 53.5176 27.3951C54.9863 27.3951 56.2207 27.6347 57.2207 28.1139C58.2311 28.5931 59.0124 29.2441 59.5645 30.067C60.127 30.8899 60.4811 31.8274 60.627 32.8795H58.7832C58.6582 32.1816 58.403 31.541 58.0176 30.9576C57.6322 30.3639 57.0749 29.8899 56.3457 29.5358C55.6165 29.1816 54.679 29.0045 53.5332 29.0045C52.6061 29.0045 51.7832 29.1608 51.0645 29.4733C50.3457 29.7858 49.7363 30.2337 49.2363 30.817C48.7467 31.3899 48.3717 32.0878 48.1113 32.9108C47.8613 33.7233 47.7363 34.6295 47.7363 35.6295V37.7076C47.7363 38.7493 47.877 39.692 48.1582 40.5358C48.4499 41.3691 48.8613 42.0826 49.3926 42.6764C49.9238 43.2701 50.5592 43.7233 51.2988 44.0358C52.0488 44.3483 52.8874 44.5045 53.8145 44.5045C55.252 44.5045 56.3717 44.3326 57.1738 43.9889C57.9759 43.6451 58.5124 43.3274 58.7832 43.0358V38.5983H53.6426V37.0514H60.6426Z" fill="#4B4A4A"/>
</svg>
