<svg width="53" height="49" viewBox="0 0 53 49" fill="none" xmlns="http://www.w3.org/2000/svg">
<g clip-path="url(#clip0_748_266)">
<rect width="53" height="49" fill="white"/>
<rect width="53" height="49" fill="#FFBB91"/>
<path d="M18.34 27.0576H19.6184C19.5324 27.9027 19.2818 28.6331 18.8664 29.249C18.4582 29.8649 17.8996 30.3411 17.1906 30.6777C16.4816 31.0072 15.6294 31.1719 14.634 31.1719C13.8534 31.1719 13.1516 31.0394 12.5285 30.7744C11.9055 30.5023 11.3684 30.1156 10.9172 29.6143C10.4732 29.113 10.1294 28.515 9.88594 27.8203C9.64961 27.1185 9.53144 26.3379 9.53144 25.4785V24.0176C9.53144 23.1582 9.64961 22.3812 9.88594 21.6865C10.1294 20.9847 10.4768 20.3831 10.9279 19.8818C11.3791 19.3734 11.9198 18.9867 12.55 18.7217C13.1874 18.4495 13.8999 18.3135 14.6877 18.3135C15.6688 18.3135 16.5067 18.4782 17.2014 18.8076C17.9032 19.137 18.4582 19.6133 18.8664 20.2363C19.2818 20.8594 19.5324 21.6006 19.6184 22.46H18.34C18.2541 21.8083 18.0679 21.2568 17.7814 20.8057C17.5021 20.3545 17.1083 20.0107 16.5998 19.7744C16.0913 19.5381 15.454 19.4199 14.6877 19.4199C14.079 19.4199 13.5347 19.5273 13.0549 19.7422C12.5751 19.9499 12.1669 20.2578 11.8303 20.666C11.4937 21.0671 11.2359 21.5505 11.0568 22.1162C10.885 22.6748 10.799 23.305 10.799 24.0068V25.4785C10.799 26.1589 10.8814 26.7819 11.0461 27.3477C11.218 27.9062 11.465 28.3932 11.7873 28.8086C12.1167 29.2168 12.5178 29.5319 12.9904 29.7539C13.4702 29.9688 14.0181 30.0762 14.634 30.0762C15.4074 30.0762 16.0484 29.9652 16.5568 29.7432C17.0725 29.5212 17.4735 29.1846 17.76 28.7334C18.0536 28.2822 18.2469 27.7236 18.34 27.0576ZM27.1561 16.7812V33.6367H26.1697V16.7812H27.1561ZM44.1893 24.9521V29.5068C44.0317 29.7145 43.7596 29.9508 43.3729 30.2158C42.9933 30.4736 42.4848 30.6992 41.8475 30.8926C41.2101 31.0788 40.4187 31.1719 39.4734 31.1719C38.6714 31.1719 37.9373 31.0394 37.2713 30.7744C36.6124 30.5094 36.0395 30.1263 35.5525 29.625C35.0727 29.1237 34.7003 28.5186 34.4354 27.8096C34.1704 27.0934 34.0379 26.2913 34.0379 25.4033V23.9961C34.0379 23.1224 34.1596 22.3382 34.4031 21.6436C34.6466 20.9417 34.9975 20.3438 35.4559 19.8496C35.9142 19.3483 36.4656 18.9688 37.1102 18.7109C37.7618 18.446 38.4887 18.3135 39.2908 18.3135C40.3006 18.3135 41.1492 18.4782 41.8367 18.8076C42.5314 19.137 43.0685 19.5846 43.448 20.1504C43.8348 20.7161 44.0783 21.3607 44.1785 22.084H42.9109C42.825 21.6042 42.6495 21.1637 42.3846 20.7627C42.1196 20.3545 41.7365 20.0286 41.2352 19.7852C40.7339 19.5417 40.0893 19.4199 39.3016 19.4199C38.6642 19.4199 38.0984 19.5273 37.6043 19.7422C37.1102 19.957 36.6912 20.265 36.3475 20.666C36.0109 21.0599 35.7531 21.5397 35.574 22.1055C35.4021 22.6641 35.3162 23.2871 35.3162 23.9746V25.4033C35.3162 26.1195 35.4129 26.7676 35.6062 27.3477C35.8068 27.9206 36.0896 28.4111 36.4549 28.8193C36.8201 29.2275 37.257 29.5391 37.7654 29.7539C38.2811 29.9688 38.8576 30.0762 39.4949 30.0762C40.4832 30.0762 41.2531 29.958 41.8045 29.7217C42.3559 29.4854 42.7247 29.2669 42.9109 29.0664V26.0156H39.3768V24.9521H44.1893Z" fill="#4B4A4A"/>
</g>
<defs>
<clipPath id="clip0_748_266">
<rect width="53" height="49" fill="white"/>
</clipPath>
</defs>
</svg>
