<svg width="273" height="72" viewBox="0 0 273 72" fill="none" xmlns="http://www.w3.org/2000/svg">
<rect x="71" width="201.277" height="71.4931" fill="#515070"/>
<path d="M113.204 50.3V43.4738H115.279C115.88 43.4738 116.419 43.6027 116.896 43.8605C117.372 44.1183 117.743 44.4836 118.009 44.9562C118.279 45.425 118.417 45.9543 118.425 46.5441V47.1828C118.425 47.7883 118.294 48.3273 118.033 48.8C117.775 49.2687 117.406 49.634 116.925 49.8957C116.449 50.1574 115.904 50.2922 115.29 50.3H113.204ZM113.902 44.0773V49.7082H115.238C115.995 49.7082 116.599 49.4797 117.048 49.0226C117.501 48.5656 117.728 47.9406 117.728 47.1476V46.591C117.728 45.8293 117.507 45.2199 117.066 44.7629C116.624 44.3058 116.023 44.0773 115.261 44.0773H113.902ZM126.253 47.0598H122.872V49.7082H126.768V50.3H122.174V43.4738H126.745V44.0773H122.872V46.4621H126.253V47.0598ZM134.379 48.6066C134.379 48.259 134.25 47.9797 133.992 47.7687C133.734 47.5578 133.254 47.3644 132.551 47.1887C131.851 47.009 131.336 46.8293 131.004 46.6496C130.672 46.4699 130.424 46.2609 130.26 46.0226C130.099 45.7805 130.019 45.4953 130.019 45.1672C130.019 44.6398 130.25 44.2101 130.711 43.8781C131.172 43.5461 131.771 43.3801 132.51 43.3801C133.252 43.3801 133.859 43.5734 134.332 43.9601C134.805 44.343 135.041 44.8351 135.041 45.4367H134.338C134.338 44.9953 134.17 44.6418 133.834 44.3762C133.498 44.1105 133.055 43.9777 132.504 43.9777C131.961 43.9777 131.527 44.0871 131.203 44.3058C130.879 44.5246 130.717 44.8098 130.717 45.1613C130.717 45.4855 130.859 45.7512 131.144 45.9582C131.43 46.1613 131.902 46.3469 132.562 46.5148C133.226 46.6828 133.726 46.8586 134.062 47.0422C134.402 47.2258 134.658 47.4465 134.83 47.7043C135.002 47.9582 135.088 48.257 135.088 48.6008C135.088 49.1476 134.851 49.5832 134.379 49.9074C133.91 50.2316 133.299 50.3937 132.545 50.3937C132.029 50.3937 131.56 50.3117 131.139 50.1476C130.717 49.9797 130.385 49.7414 130.142 49.4328C129.904 49.1203 129.785 48.7492 129.785 48.3195H130.488C130.488 48.7844 130.672 49.1496 131.039 49.4152C131.41 49.6769 131.912 49.8078 132.545 49.8078C133.099 49.8078 133.543 49.6984 133.875 49.4797C134.211 49.257 134.379 48.966 134.379 48.6066ZM142.693 47.0598H139.312V49.7082H143.208V50.3H138.614V43.4738H143.185V44.0773H139.312V46.4621H142.693V47.0598ZM152.202 50.3H151.504L147.391 44.5754V50.3H146.694V43.4738H147.391L151.504 49.1984V43.4738H152.202V50.3ZM158.371 49.0519L158.517 49.5676L158.67 49.0578L160.82 43.4738H161.576L158.863 50.3H158.177L155.465 43.4738H156.226L158.371 49.0519ZM170.311 47.2297C170.311 48.1906 170.052 48.9582 169.532 49.5324C169.013 50.1066 168.315 50.3937 167.44 50.3937C166.569 50.3937 165.87 50.1047 165.343 49.5266C164.819 48.9484 164.558 48.173 164.558 47.2004V46.5558C164.558 45.9269 164.675 45.3723 164.909 44.8918C165.144 44.4113 165.479 44.0402 165.917 43.7785C166.358 43.5129 166.862 43.3801 167.429 43.3801C168.276 43.3801 168.962 43.6574 169.485 44.2121C170.013 44.7629 170.288 45.5051 170.311 46.4387V47.2297ZM169.62 46.5441C169.62 45.7473 169.423 45.1242 169.028 44.675C168.638 44.2219 168.104 43.9953 167.429 43.9953C166.761 43.9953 166.229 44.2219 165.835 44.675C165.444 45.1242 165.249 45.759 165.249 46.5793V47.2297C165.249 48.0226 165.446 48.6476 165.841 49.1047C166.235 49.5617 166.769 49.7902 167.44 49.7902C168.12 49.7902 168.653 49.5637 169.04 49.1105C169.427 48.6574 169.62 48.0226 169.62 47.2062V46.5441ZM174.758 49.7082H178.344V50.3H174.061V43.4738H174.758V49.7082ZM183.875 49.0519L184.021 49.5676L184.173 49.0578L186.324 43.4738H187.08L184.367 50.3H183.681L180.968 43.4738H181.73L183.875 49.0519ZM194.427 47.0598H191.046V49.7082H194.942V50.3H190.348V43.4738H194.919V44.0773H191.046V46.4621H194.427V47.0598ZM198.428 50.3V43.4738H200.502C201.104 43.4738 201.643 43.6027 202.119 43.8605C202.596 44.1183 202.967 44.4836 203.232 44.9562C203.502 45.425 203.641 45.9543 203.649 46.5441V47.1828C203.649 47.7883 203.518 48.3273 203.256 48.8C202.998 49.2687 202.629 49.634 202.149 49.8957C201.672 50.1574 201.127 50.2922 200.514 50.3H198.428ZM199.125 44.0773V49.7082H200.461C201.219 49.7082 201.822 49.4797 202.272 49.0226C202.725 48.5656 202.951 47.9406 202.951 47.1476V46.591C202.951 45.8293 202.731 45.2199 202.289 44.7629C201.848 44.3058 201.246 44.0773 200.484 44.0773H199.125ZM212.865 47.2297C212.865 48.1906 212.605 48.9582 212.085 49.5324C211.566 50.1066 210.869 50.3937 209.994 50.3937C209.122 50.3937 208.423 50.1047 207.896 49.5266C207.372 48.9484 207.111 48.173 207.111 47.2004V46.5558C207.111 45.9269 207.228 45.3723 207.462 44.8918C207.697 44.4113 208.033 44.0402 208.47 43.7785C208.911 43.5129 209.415 43.3801 209.982 43.3801C210.829 43.3801 211.515 43.6574 212.038 44.2121C212.566 44.7629 212.841 45.5051 212.865 46.4387V47.2297ZM212.173 46.5441C212.173 45.7473 211.976 45.1242 211.581 44.675C211.191 44.2219 210.658 43.9953 209.982 43.9953C209.314 43.9953 208.783 44.2219 208.388 44.675C207.997 45.1242 207.802 45.759 207.802 46.5793V47.2297C207.802 48.0226 207.999 48.6476 208.394 49.1047C208.788 49.5617 209.322 49.7902 209.994 49.7902C210.673 49.7902 211.206 49.5637 211.593 49.1105C211.98 48.6574 212.173 48.0226 212.173 47.2062V46.5441ZM219.374 47.5578H217.299V50.3H216.602V43.4738H219.022C219.807 43.4738 220.421 43.6574 220.862 44.0246C221.307 44.3918 221.53 44.8957 221.53 45.5363C221.53 45.9855 221.393 46.3781 221.12 46.7141C220.846 47.0461 220.485 47.2746 220.036 47.3996L221.84 50.2414V50.3H221.09L219.374 47.5578ZM217.299 46.9601H219.151C219.659 46.9601 220.065 46.8293 220.37 46.5676C220.674 46.3058 220.827 45.968 220.827 45.5539C220.827 45.0969 220.669 44.7375 220.352 44.4758C220.04 44.2141 219.602 44.0812 219.04 44.0773H217.299V46.9601ZM229.404 48.4777H226.094L225.367 50.3H224.641L227.418 43.4738H228.092L230.846 50.3H230.125L229.404 48.4777ZM226.328 47.8801H229.164L227.752 44.3117L226.328 47.8801Z" fill="#F6F6F6"/>
<path d="M91.7533 29.8706C91.6426 30.9054 91.2386 31.7078 90.5414 32.2778C89.8441 32.8478 88.9172 33.1328 87.7606 33.1328C86.521 33.1328 85.5249 32.7261 84.7723 31.9126C84.0253 31.0936 83.6517 29.9674 83.6517 28.5342V27.7539C83.6517 26.8464 83.8205 26.0495 84.1581 25.3633C84.5012 24.6715 84.9909 24.1375 85.6273 23.7612C86.2692 23.3849 87.0108 23.1968 87.8519 23.1968C88.9808 23.1968 89.8856 23.4901 90.5663 24.0767C91.2525 24.6577 91.6481 25.4657 91.7533 26.5005H90.2176C90.118 25.7811 89.8718 25.2609 89.4789 24.9399C89.0915 24.619 88.5492 24.4585 87.8519 24.4585C87.0052 24.4585 86.3495 24.7407 85.8846 25.3052C85.4253 25.8641 85.1929 26.6665 85.1874 27.7124V28.5923C85.1874 29.6382 85.4059 30.4489 85.8431 31.0244C86.2858 31.5944 86.925 31.8794 87.7606 31.8794C88.5077 31.8794 89.0749 31.7272 89.4623 31.4229C89.8552 31.113 90.107 30.5955 90.2176 29.8706H91.7533ZM101.89 30.6841H97.5738L96.6607 33H95.0919L99.0679 23.3296H100.446L104.364 33H102.803L101.89 30.6841ZM98.0718 29.4307H101.4L99.7486 25.2056L98.0718 29.4307ZM110.234 23.3296L113.48 30.8916L116.709 23.3296H118.709V33H117.182V29.6714L117.34 25.2471L114.036 33H112.907L109.612 25.2803L109.769 29.6714V33H108.242V23.3296H110.234ZM125.21 33H123.666V23.3296H125.21V33ZM131.695 31.7466H136.543V33H130.159V23.3296H131.695V31.7466ZM146.389 30.6841H142.073L141.16 33H139.591L143.567 23.3296H144.945L148.863 33H147.302L146.389 30.6841ZM142.571 29.4307H145.899L144.247 25.2056L142.571 29.4307ZM167.302 31.7549C166.937 32.2142 166.43 32.5601 165.783 32.7925C165.141 33.0194 164.402 33.1328 163.567 33.1328C162.25 33.1328 161.193 32.7205 160.396 31.896C159.599 31.0715 159.195 29.9619 159.184 28.5674V27.8203C159.184 26.3704 159.552 25.2388 160.288 24.4253C161.029 23.6063 162.07 23.1968 163.409 23.1968C164.516 23.1968 165.404 23.4569 166.073 23.9771C166.743 24.4972 167.153 25.2581 167.302 26.2598H165.775C165.564 25.0589 164.781 24.4585 163.426 24.4585C162.546 24.4585 161.876 24.7435 161.417 25.3135C160.957 25.8835 160.728 26.7191 160.728 27.8203V28.5176C160.728 29.569 160.982 30.3936 161.491 30.9912C162.006 31.5833 162.706 31.8794 163.592 31.8794C164.599 31.8794 165.326 31.6746 165.775 31.2651V29.2896H163.442V28.0942H167.302V31.7549ZM179.423 23.3296V29.8042C179.423 30.8114 179.077 31.6193 178.385 32.228C177.693 32.8312 176.769 33.1328 175.613 33.1328C174.451 33.1328 173.529 32.8423 172.849 32.2612C172.168 31.6746 171.819 30.8778 171.803 29.8706V23.3296H173.322V29.8042C173.322 30.4738 173.518 30.9884 173.911 31.3481C174.31 31.7023 174.877 31.8794 175.613 31.8794C176.338 31.8794 176.897 31.7051 177.29 31.3564C177.688 31.0023 177.887 30.4849 177.887 29.8042V23.3296H179.423ZM185.716 33H184.173V23.3296H185.716V33ZM192.658 23.3296L195.903 30.8916L199.132 23.3296H201.133V33H199.605V29.6714L199.763 25.2471L196.459 33H195.33L192.035 25.2803L192.193 29.6714V33H190.665V23.3296H192.658ZM211.793 30.6841H207.476L206.563 33H204.994L208.97 23.3296H210.348L214.266 33H212.706L211.793 30.6841ZM207.974 29.4307H211.303L209.651 25.2056L207.974 29.4307ZM221.996 29.2729H219.68V33H218.144V23.3296H221.68C222.859 23.3296 223.767 23.5869 224.403 24.1016C225.045 24.6162 225.366 25.3439 225.366 26.2847C225.366 27.5464 224.716 28.4235 223.415 28.916L225.806 32.917V33H224.162L221.996 29.2729ZM219.68 28.0195H221.722C222.369 28.0195 222.881 27.8701 223.258 27.5713C223.639 27.2669 223.83 26.8574 223.83 26.3428C223.83 25.7894 223.645 25.3605 223.274 25.0562C222.903 24.7518 222.369 24.5996 221.672 24.5996H219.68V28.0195ZM235.619 30.6841H231.303L230.39 33H228.821L232.797 23.3296H234.175L238.093 33H236.532L235.619 30.6841ZM231.801 29.4307H235.129L233.477 25.2056L231.801 29.4307ZM236.433 20.2666C236.433 20.8643 236.261 21.3485 235.918 21.7192C235.58 22.09 235.157 22.2754 234.648 22.2754C234.421 22.2754 234.225 22.2477 234.059 22.1924C233.893 22.137 233.674 22.0236 233.403 21.8521C233.137 21.6805 232.943 21.5781 232.822 21.5449C232.706 21.5062 232.57 21.4868 232.415 21.4868C232.188 21.4868 231.994 21.5754 231.834 21.7524C231.673 21.924 231.593 22.1453 231.593 22.4165L230.564 22.3584C230.564 21.7663 230.73 21.2765 231.062 20.8892C231.4 20.5018 231.826 20.3081 232.34 20.3081C232.534 20.3081 232.708 20.3358 232.863 20.3911C233.018 20.4465 233.228 20.5544 233.494 20.7148C233.76 20.8753 233.962 20.9805 234.1 21.0303C234.244 21.0801 234.402 21.105 234.573 21.105C234.811 21.105 235.008 21.0109 235.163 20.8228C235.323 20.6346 235.403 20.416 235.403 20.167L236.433 20.2666ZM247.923 28.6338H243.507V31.7466H248.645V33H241.971V23.3296H248.595V24.5996H243.507V27.3721H247.923V28.6338ZM258.325 30.5264C258.325 30.0837 258.156 29.7406 257.819 29.4971C257.487 29.2536 256.914 29.0295 256.1 28.8247C255.287 28.62 254.642 28.3986 254.166 28.1606C253.087 27.6183 252.548 26.8519 252.548 25.8613C252.548 25.07 252.883 24.4281 253.552 23.9355C254.227 23.443 255.093 23.1968 256.15 23.1968C257.235 23.1968 258.12 23.4735 258.807 24.0269C259.498 24.5802 259.844 25.2886 259.844 26.1519H258.308C258.308 25.6095 258.112 25.1917 257.719 24.8984C257.332 24.5996 256.803 24.4502 256.134 24.4502C255.508 24.4502 255.01 24.5747 254.64 24.8237C254.269 25.0672 254.083 25.4103 254.083 25.853C254.083 26.2127 254.252 26.5143 254.59 26.7578C254.933 27.0013 255.536 27.2337 256.399 27.4551C257.263 27.6764 257.938 27.9282 258.425 28.2104C258.912 28.4871 259.274 28.8136 259.512 29.1899C259.75 29.5662 259.869 30.0062 259.869 30.5098C259.869 31.3232 259.531 31.9652 258.856 32.4355C258.187 32.9004 257.301 33.1328 256.2 33.1328C255.055 33.1328 254.103 32.8534 253.345 32.2944C252.592 31.73 252.216 30.9995 252.216 30.103H253.76C253.76 30.6675 253.973 31.1074 254.399 31.4229C254.825 31.7383 255.425 31.896 256.2 31.896C256.897 31.896 257.426 31.7715 257.786 31.5225C258.145 31.2679 258.325 30.9359 258.325 30.5264Z" fill="#F6F6F6"/>
<rect width="71.49" height="71.4931" fill="#FFBB91"/>
<path d="M25.6641 40.2656C25.4453 42.1927 24.7005 43.6719 23.4297 44.7031C22.1693 45.7344 20.4922 46.25 18.3984 46.25C16.1901 46.25 14.3984 45.5052 13.0234 44.0156C11.6589 42.526 10.9766 40.474 10.9766 37.8594V35.8594C10.9766 34.2135 11.2839 32.7604 11.8984 31.5C12.5234 30.2292 13.4036 29.2552 14.5391 28.5781C15.6745 27.8906 16.9922 27.5469 18.4922 27.5469C20.5755 27.5469 22.237 28.0729 23.4766 29.125C24.7161 30.1667 25.4453 31.651 25.6641 33.5781H23.7891C23.6016 32.1615 23.0859 31.0729 22.2422 30.3125C21.3984 29.5417 20.1484 29.1562 18.4922 29.1562C16.7422 29.1562 15.362 29.75 14.3516 30.9375C13.3411 32.125 12.8359 33.7812 12.8359 35.9062V37.9688C12.8359 40.0417 13.3307 41.6771 14.3203 42.875C15.3203 44.0729 16.6797 44.6719 18.3984 44.6719C20.0755 44.6719 21.3411 44.3073 22.1953 43.5781C23.0599 42.849 23.5911 41.7448 23.7891 40.2656H25.6641ZM36.1715 49.6914H34.7906V26.0938H36.1715V49.6914ZM60.6016 43.8281C60.1953 44.3698 59.5859 44.8385 58.7734 45.2344C57.3672 45.9115 55.6901 46.25 53.7422 46.25C51.3776 46.25 49.4661 45.4844 48.0078 43.9531C46.5495 42.4219 45.8203 40.3698 45.8203 37.7969V35.8281C45.8203 33.3073 46.5078 31.2969 47.8828 29.7969C49.2578 28.2969 51.1172 27.5469 53.4609 27.5469C55.5026 27.5469 57.1328 28.026 58.3516 28.9844C59.5807 29.9427 60.3255 31.2969 60.5859 33.0469H58.7266C58.4974 31.7448 57.9297 30.7708 57.0234 30.125C56.1172 29.4792 54.9349 29.1562 53.4766 29.1562C51.6849 29.1562 50.2734 29.7448 49.2422 30.9219C48.2109 32.099 47.6953 33.7396 47.6953 35.8438V37.875C47.6953 39.9375 48.2422 41.5885 49.3359 42.8281C50.4297 44.0573 51.9036 44.6719 53.7578 44.6719C54.8307 44.6719 55.8099 44.5469 56.6953 44.2969C57.5911 44.0365 58.2734 43.6719 58.7422 43.2031V38.75H53.6016V37.2188H60.6016V43.8281Z" fill="#4B4A4A"/>
</svg>
