<svg width="269" height="71" viewBox="0 0 269 71" fill="none" xmlns="http://www.w3.org/2000/svg">
<g style="mix-blend-mode:lighten">
<rect x="66.7649" width="201.277" height="71" fill="#515070"/>
<path d="M113.655 49.6494V43.392H115.557C116.108 43.392 116.602 43.5102 117.039 43.7465C117.476 43.9828 117.816 44.3176 118.06 44.7509C118.307 45.1806 118.434 45.6658 118.441 46.2065V46.7919C118.441 47.3469 118.321 47.8411 118.081 48.2744C117.845 48.704 117.506 49.0388 117.066 49.2787C116.629 49.5187 116.13 49.6422 115.567 49.6494H113.655ZM114.295 43.9453V49.1069H115.519C116.214 49.1069 116.767 48.8974 117.179 48.4785C117.594 48.0595 117.802 47.4866 117.802 46.7597V46.2495C117.802 45.5512 117.6 44.9926 117.195 44.5737C116.79 44.1547 116.239 43.9453 115.541 43.9453H114.295ZM125.616 46.6791H122.517V49.1069H126.089V49.6494H121.878V43.392H126.067V43.9453H122.517V46.1313H125.616V46.6791ZM133.065 48.0971C133.065 47.7784 132.947 47.5224 132.711 47.329C132.474 47.1357 132.034 46.9584 131.389 46.7973C130.748 46.6326 130.276 46.4679 129.971 46.3032C129.667 46.1384 129.44 45.9469 129.289 45.7285C129.143 45.5064 129.069 45.2451 129.069 44.9443C129.069 44.4609 129.28 44.067 129.703 43.7626C130.125 43.4583 130.675 43.3061 131.352 43.3061C132.032 43.3061 132.589 43.4833 133.022 43.8378C133.456 44.1887 133.672 44.6399 133.672 45.1913H133.028C133.028 44.7867 132.874 44.4627 132.566 44.2192C132.258 43.9757 131.851 43.8539 131.346 43.8539C130.849 43.8539 130.451 43.9542 130.154 44.1547C129.857 44.3552 129.708 44.6166 129.708 44.9389C129.708 45.2361 129.839 45.4796 130.1 45.6694C130.362 45.8556 130.795 46.0257 131.4 46.1796C132.009 46.3336 132.467 46.4947 132.775 46.663C133.087 46.8313 133.321 47.0336 133.479 47.27C133.636 47.5027 133.715 47.7766 133.715 48.0917C133.715 48.593 133.498 48.9923 133.065 49.2895C132.636 49.5867 132.075 49.7353 131.384 49.7353C130.911 49.7353 130.482 49.6601 130.095 49.5097C129.708 49.3557 129.404 49.1373 129.182 48.8544C128.963 48.568 128.854 48.2278 128.854 47.8339H129.499C129.499 48.26 129.667 48.5948 130.004 48.8383C130.344 49.0782 130.804 49.1982 131.384 49.1982C131.893 49.1982 132.299 49.0979 132.603 48.8974C132.911 48.6933 133.065 48.4265 133.065 48.0971ZM140.686 46.6791H137.587V49.1069H141.159V49.6494H136.948V43.392H141.137V43.9453H137.587V46.1313H140.686V46.6791ZM149.403 49.6494H148.764L144.993 44.4018V49.6494H144.354V43.392H144.993L148.764 48.6396V43.392H149.403V49.6494ZM155.058 48.5053L155.192 48.978L155.332 48.5107L157.303 43.392H157.996L155.509 49.6494H154.881L152.394 43.392H153.092L155.058 48.5053ZM166.004 46.8349C166.004 47.7158 165.765 48.4194 165.289 48.9457C164.813 49.4721 164.174 49.7353 163.372 49.7353C162.573 49.7353 161.932 49.4703 161.449 48.9404C160.969 48.4104 160.729 47.6996 160.729 46.808V46.2172C160.729 45.6407 160.837 45.1323 161.051 44.6918C161.266 44.2514 161.574 43.9112 161.975 43.6713C162.38 43.4278 162.842 43.3061 163.361 43.3061C164.138 43.3061 164.766 43.5603 165.246 44.0688C165.73 44.5737 165.982 45.254 166.004 46.1098V46.8349ZM165.37 46.2065C165.37 45.476 165.189 44.9049 164.827 44.4931C164.469 44.0777 163.98 43.8701 163.361 43.8701C162.749 43.8701 162.262 44.0777 161.9 44.4931C161.542 44.9049 161.363 45.4868 161.363 46.2387V46.8349C161.363 47.5618 161.544 48.1347 161.905 48.5536C162.267 48.9726 162.756 49.1821 163.372 49.1821C163.995 49.1821 164.484 48.9744 164.838 48.559C165.193 48.1437 165.37 47.5618 165.37 46.8134V46.2065ZM170.08 49.1069H173.367V49.6494H169.44V43.392H170.08V49.1069ZM178.436 48.5053L178.571 48.978L178.71 48.5107L180.681 43.392H181.374L178.888 49.6494H178.259L175.772 43.392H176.471L178.436 48.5053ZM188.109 46.6791H185.01V49.1069H188.582V49.6494H184.371V43.392H188.56V43.9453H185.01V46.1313H188.109V46.6791ZM191.777 49.6494V43.392H193.678C194.23 43.392 194.724 43.5102 195.161 43.7465C195.597 43.9828 195.938 44.3176 196.181 44.7509C196.428 45.1806 196.555 45.6658 196.562 46.2065V46.7919C196.562 47.3469 196.443 47.8411 196.203 48.2744C195.966 48.704 195.628 49.0388 195.187 49.2787C194.751 49.5187 194.251 49.6422 193.689 49.6494H191.777ZM192.416 43.9453V49.1069H193.641C194.335 49.1069 194.888 48.8974 195.3 48.4785C195.716 48.0595 195.923 47.4866 195.923 46.7597V46.2495C195.923 45.5512 195.721 44.9926 195.316 44.5737C194.912 44.1547 194.36 43.9453 193.662 43.9453H192.416ZM205.011 46.8349C205.011 47.7158 204.772 48.4194 204.296 48.9457C203.82 49.4721 203.181 49.7353 202.379 49.7353C201.58 49.7353 200.939 49.4703 200.456 48.9404C199.976 48.4104 199.736 47.6996 199.736 46.808V46.2172C199.736 45.6407 199.844 45.1323 200.058 44.6918C200.273 44.2514 200.581 43.9112 200.982 43.6713C201.387 43.4278 201.849 43.3061 202.368 43.3061C203.145 43.3061 203.773 43.5603 204.253 44.0688C204.737 44.5737 204.989 45.254 205.011 46.1098V46.8349ZM204.377 46.2065C204.377 45.476 204.196 44.9049 203.834 44.4931C203.476 44.0777 202.987 43.8701 202.368 43.8701C201.756 43.8701 201.269 44.0777 200.907 44.4931C200.549 44.9049 200.37 45.4868 200.37 46.2387V46.8349C200.37 47.5618 200.551 48.1347 200.912 48.5536C201.274 48.9726 201.763 49.1821 202.379 49.1821C203.002 49.1821 203.491 48.9744 203.845 48.559C204.2 48.1437 204.377 47.5618 204.377 46.8134V46.2065ZM210.977 47.1357H209.076V49.6494H208.437V43.392H210.655C211.375 43.392 211.937 43.5603 212.341 43.8969C212.75 44.2335 212.954 44.6954 212.954 45.2827C212.954 45.6944 212.828 46.0543 212.578 46.3622C212.327 46.6666 211.996 46.8761 211.584 46.9907L213.238 49.5956V49.6494H212.551L210.977 47.1357ZM209.076 46.5878H210.773C211.239 46.5878 211.611 46.4679 211.89 46.228C212.17 45.9881 212.309 45.6783 212.309 45.2988C212.309 44.8798 212.164 44.5504 211.874 44.3105C211.588 44.0706 211.187 43.9488 210.671 43.9453H209.076V46.5878ZM220.172 47.9789H217.137L216.471 49.6494H215.805L218.351 43.392H218.969L221.493 49.6494H220.833L220.172 47.9789ZM217.352 47.4311H219.952L218.657 44.1601L217.352 47.4311Z" fill="#F6F6F6"/>
<path d="M93.6426 30.6024C93.5449 31.5155 93.1885 32.2235 92.5732 32.7264C91.958 33.2294 91.1401 33.4808 90.1196 33.4808C89.0259 33.4808 88.147 33.1219 87.4829 32.4042C86.8237 31.6815 86.4941 30.6879 86.4941 29.4232V28.7347C86.4941 27.934 86.6431 27.2308 86.9409 26.6254C87.2437 26.015 87.6758 25.5438 88.2373 25.2118C88.8037 24.8798 89.458 24.7137 90.2002 24.7137C91.1963 24.7137 91.9946 24.9725 92.5952 25.4901C93.2007 26.0028 93.5498 26.7157 93.6426 27.6288H92.2876C92.1997 26.994 91.9824 26.535 91.6357 26.2518C91.2939 25.9686 90.8154 25.827 90.2002 25.827C89.4531 25.827 88.8745 26.076 88.4644 26.5741C88.0591 27.0673 87.854 27.7753 87.8491 28.6981V29.4745C87.8491 30.3973 88.042 31.1127 88.4277 31.6205C88.8184 32.1234 89.3823 32.3749 90.1196 32.3749C90.7788 32.3749 91.2793 32.2406 91.6211 31.972C91.9678 31.6986 92.1899 31.2421 92.2876 30.6024H93.6426ZM103.037 31.3202H99.2283L98.4227 33.3636H97.0384L100.547 24.8309H101.762L105.22 33.3636H103.843L103.037 31.3202ZM99.6678 30.2142H102.605L101.147 26.4862L99.6678 30.2142ZM110.849 24.8309L113.713 31.5033L116.562 24.8309H118.327V33.3636H116.98V30.4266L117.119 26.5228L114.204 33.3636H113.208L110.3 26.5521L110.439 30.4266V33.3636H109.091V24.8309H110.849ZM124.514 33.3636H123.151V24.8309H124.514V33.3636ZM130.685 32.2577H134.963V33.3636H129.33V24.8309H130.685V32.2577ZM144.101 31.3202H140.292L139.486 33.3636H138.102L141.61 24.8309H142.826L146.283 33.3636H144.906L144.101 31.3202ZM140.731 30.2142H143.668L142.211 26.4862L140.731 30.2142ZM163.453 32.265C163.131 32.6703 162.684 32.9755 162.113 33.1805C161.546 33.3807 160.895 33.4808 160.157 33.4808C158.995 33.4808 158.063 33.1171 157.359 32.3895C156.656 31.662 156.3 30.683 156.29 29.4525V28.7933C156.29 27.514 156.615 26.5155 157.264 25.7977C157.919 25.0751 158.837 24.7137 160.018 24.7137C160.995 24.7137 161.778 24.9432 162.369 25.4022C162.96 25.8612 163.321 26.5326 163.453 27.4164H162.106C161.92 26.3568 161.229 25.827 160.033 25.827C159.256 25.827 158.666 26.0785 158.26 26.5814C157.855 27.0844 157.652 27.8217 157.652 28.7933V29.4086C157.652 30.3363 157.877 31.0638 158.326 31.5912C158.78 32.1136 159.398 32.3749 160.179 32.3749C161.068 32.3749 161.71 32.1942 162.106 31.8329V30.0897H160.047V29.035H163.453V32.265ZM174.598 24.8309V30.5438C174.598 31.4325 174.293 32.1454 173.683 32.6825C173.072 33.2147 172.257 33.4808 171.236 33.4808C170.211 33.4808 169.398 33.2245 168.797 32.7118C168.197 32.1942 167.889 31.4911 167.874 30.6024V24.8309H169.215V30.5438C169.215 31.1346 169.388 31.5887 169.735 31.9061C170.086 32.2186 170.587 32.3749 171.236 32.3749C171.876 32.3749 172.369 32.2211 172.716 31.9135C173.067 31.601 173.243 31.1444 173.243 30.5438V24.8309H174.598ZM180.601 33.3636H179.239V24.8309H180.601V33.3636ZM187.176 24.8309L190.04 31.5033L192.889 24.8309H194.654V33.3636H193.306V30.4266L193.445 26.5228L190.53 33.3636H189.534L186.626 26.5521L186.766 30.4266V33.3636H185.418V24.8309H187.176ZM204.51 31.3202H200.701L199.895 33.3636H198.511L202.019 24.8309H203.235L206.692 33.3636H205.315L204.51 31.3202ZM201.14 30.2142H204.077L202.62 26.4862L201.14 30.2142ZM213.963 30.0751H211.919V33.3636H210.564V24.8309H213.684C214.724 24.8309 215.525 25.058 216.087 25.5121C216.653 25.9662 216.936 26.6083 216.936 27.4384C216.936 28.5516 216.362 29.3256 215.215 29.7601L217.324 33.2904V33.3636H215.874L213.963 30.0751ZM211.919 28.9691H213.721C214.292 28.9691 214.744 28.8373 215.076 28.5736C215.413 28.3051 215.581 27.9437 215.581 27.4896C215.581 27.0013 215.418 26.6229 215.09 26.3544C214.763 26.0858 214.292 25.9515 213.677 25.9515H211.919V28.9691ZM226.433 31.3202H222.624L221.819 33.3636H220.434L223.943 24.8309H225.159L228.616 33.3636H227.239L226.433 31.3202ZM223.064 30.2142H226.001L224.543 26.4862L223.064 30.2142ZM227.151 22.1283C227.151 22.6556 226.999 23.0829 226.697 23.41C226.399 23.7372 226.025 23.9008 225.576 23.9008C225.376 23.9008 225.203 23.8763 225.056 23.8275C224.91 23.7787 224.717 23.6786 224.477 23.5272C224.243 23.3759 224.072 23.2855 223.965 23.2562C223.862 23.222 223.743 23.205 223.606 23.205C223.406 23.205 223.235 23.2831 223.093 23.4393C222.952 23.5907 222.881 23.786 222.881 24.0253L221.973 23.974C221.973 23.4515 222.119 23.0194 222.412 22.6776C222.71 22.3358 223.086 22.1649 223.54 22.1649C223.711 22.1649 223.865 22.1893 224.001 22.2382C224.138 22.287 224.324 22.3822 224.558 22.5238C224.792 22.6654 224.971 22.7582 225.093 22.8021C225.22 22.8461 225.359 22.868 225.51 22.868C225.72 22.868 225.893 22.785 226.03 22.619C226.172 22.453 226.243 22.2601 226.243 22.0404L227.151 22.1283ZM237.739 29.5111H233.842V32.2577H238.376V33.3636H232.488V24.8309H238.332V25.9515H233.842V28.3978H237.739V29.5111ZM247.368 31.181C247.368 30.7904 247.219 30.4877 246.921 30.2728C246.628 30.058 246.123 29.8602 245.405 29.6796C244.687 29.4989 244.118 29.3036 243.698 29.0936C242.746 28.6151 242.27 27.9388 242.27 27.0648C242.27 26.3666 242.565 25.8002 243.156 25.3656C243.752 24.931 244.516 24.7137 245.449 24.7137C246.406 24.7137 247.187 24.9579 247.792 25.4462C248.403 25.9344 248.708 26.5594 248.708 27.3212H247.353C247.353 26.8427 247.18 26.474 246.833 26.2152C246.491 25.9515 246.025 25.8197 245.434 25.8197C244.882 25.8197 244.443 25.9296 244.116 26.1493C243.789 26.3641 243.625 26.6669 243.625 27.0575C243.625 27.3749 243.774 27.641 244.072 27.8558C244.375 28.0707 244.907 28.2758 245.668 28.4711C246.43 28.6664 247.026 28.8885 247.456 29.1376C247.885 29.3817 248.205 29.6698 248.415 30.0018C248.625 30.3339 248.73 30.722 248.73 31.1664C248.73 31.8842 248.432 32.4506 247.836 32.8656C247.246 33.2758 246.464 33.4808 245.493 33.4808C244.482 33.4808 243.642 33.2343 242.973 32.7411C242.309 32.243 241.977 31.5985 241.977 30.8075H243.339C243.339 31.3055 243.527 31.6937 243.903 31.972C244.279 32.2504 244.809 32.3895 245.493 32.3895C246.108 32.3895 246.574 32.2797 246.892 32.0599C247.209 31.8353 247.368 31.5424 247.368 31.181Z" fill="#F6F6F6"/>
<rect width="75.6014" height="71" fill="#FFBB91"/>
<path d="M26.8568 40.473C26.6484 42.4209 25.888 43.9314 24.5755 45.0043C23.263 46.0772 21.5182 46.6136 19.3412 46.6136C17.0078 46.6136 15.1328 45.848 13.7162 44.3168C12.3099 42.7751 11.6068 40.6553 11.6068 37.9574V36.4886C11.6068 34.7803 11.9245 33.2803 12.5599 31.9886C13.2057 30.6866 14.1276 29.6814 15.3255 28.973C16.5339 28.2647 17.9297 27.9105 19.513 27.9105C21.638 27.9105 23.3412 28.4626 24.6224 29.5668C25.9141 30.6605 26.6589 32.1814 26.8568 34.1293H23.9662C23.7787 32.7751 23.3151 31.7959 22.5755 31.1918C21.8464 30.5876 20.8255 30.2855 19.513 30.2855C17.9193 30.2855 16.6849 30.8168 15.8099 31.8793C14.9453 32.9314 14.5078 34.4418 14.4974 36.4105V38.0668C14.4974 40.0355 14.9089 41.5616 15.7318 42.6449C16.5651 43.7178 17.7682 44.2543 19.3412 44.2543C20.7474 44.2543 21.8151 43.9678 22.5443 43.3949C23.2839 42.8116 23.7578 41.8376 23.9662 40.473H26.8568ZM39.4193 50.0551H37.3822V26.4574H39.4193V50.0551ZM65.599 44.0199C64.9115 44.8845 63.9583 45.5355 62.7396 45.973C61.5313 46.4001 60.1406 46.6136 58.5677 46.6136C56.0885 46.6136 54.099 45.8376 52.599 44.2855C51.099 42.7334 50.3385 40.6449 50.3177 38.0199V36.6136C50.3177 33.8845 51.0104 31.7543 52.3958 30.223C53.7917 28.6814 55.75 27.9105 58.2708 27.9105C60.3542 27.9105 62.026 28.4001 63.2865 29.3793C64.5469 30.3584 65.3177 31.7907 65.599 33.6761H62.724C62.3281 31.4157 60.8542 30.2855 58.3021 30.2855C56.6458 30.2855 55.3854 30.822 54.5208 31.8949C53.6563 32.9678 53.224 34.5407 53.224 36.6136V37.9261C53.224 39.9053 53.7031 41.4574 54.6615 42.5824C55.6302 43.697 56.9479 44.2543 58.6146 44.2543C60.5104 44.2543 61.8802 43.8689 62.724 43.098V39.3793H58.3333V37.1293H65.599V44.0199Z" fill="#4B4A4A"/>
</g>
</svg>
